<?xml version="1.0" encoding="utf-8"?>
<!-- Generator: Adobe Illustrator 17.0.0, SVG Export Plug-In . SVG Version: 6.00 Build 0)  -->
<!DOCTYPE svg PUBLIC "-//W3C//DTD SVG 1.1//EN" "http://www.w3.org/Graphics/SVG/1.1/DTD/svg11.dtd">
<svg version="1.1" id="Layer_1" xmlns="http://www.w3.org/2000/svg" xmlns:xlink="http://www.w3.org/1999/xlink" x="0px" y="0px"
	 width="100px" height="100px" viewBox="0 0 100 100" style="enable-background:new 0 0 100 100;" xml:space="preserve">
<g>
	<path style="fill:#1C1C1C;" d="M66.633,50.038c0.001,1.422-0.035,2.844,0.011,4.264c0.044,1.355-0.565,2.057-1.896,2.239
		c-2.066,0.282-4.123,0.625-6.188,0.907c-0.814,0.111-1.451,0.344-1.586,1.278c-0.037,0.257-0.119,0.547-0.279,0.742
		c-1.39,1.693-0.574,3.018,0.619,4.366c1.029,1.162,1.948,2.422,2.919,3.635c0.65,0.811,0.7,1.626-0.042,2.39
		c-2.133,2.194-4.222,4.437-6.448,6.533c-1.478,1.391-1.946,1.293-3.562,0.032c-1.471-1.147-2.959-2.272-4.402-3.452
		c-0.577-0.472-1.04-0.416-1.766-0.265c-2.76,0.571-3.562,2.31-3.555,4.898c0.003,1.395-0.45,2.793-0.712,4.186
		c-0.194,1.031-0.838,1.498-1.881,1.494c-3.021-0.011-6.042-0.007-9.063-0.002c-1.181,0.002-1.761-0.582-1.92-1.75
		c-0.305-2.241-0.643-4.48-1.058-6.703c-0.077-0.412-0.508-0.868-0.897-1.088c-0.726-0.411-1.52-0.75-2.328-0.952
		c-0.465-0.116-1.127-0.07-1.501,0.19c-1.749,1.215-3.452,2.501-5.123,3.821c-0.98,0.775-1.851,0.754-2.713-0.104
		c-1.982-1.973-4.003-3.909-5.911-5.951c-1.662-1.778-1.62-2.174-0.149-4.083c1.03-1.336,2.08-2.657,3.119-3.986
		c0.164-0.21,0.358-0.409,0.47-0.645c0.341-0.72-1.632-4.555-2.435-4.692c-2.055-0.35-4.114-0.676-6.176-0.982
		c-1.813-0.268-2.173-0.653-2.176-2.496c-0.004-2.71-0.009-5.42,0.002-8.13c0.007-1.586,0.385-2.057,1.941-2.318
		c1.969-0.331,3.94-0.68,5.925-0.877c1.1-0.109,1.714-0.551,1.922-1.607c0.026-0.13,0.045-0.282,0.123-0.378
		c1.454-1.782,0.594-3.18-0.678-4.586c-0.981-1.085-1.84-2.279-2.769-3.412c-0.691-0.843-0.789-1.722-0.017-2.514
		c2.196-2.254,4.413-4.49,6.668-6.685c1.003-0.977,2.057-0.972,3.181-0.01c1.517,1.298,3.103,2.521,4.725,3.685
		c0.364,0.261,0.998,0.192,1.507,0.187c0.24-0.002,0.469-0.285,0.719-0.318c2.37-0.307,2.743-1.958,2.867-3.953
		c0.099-1.584,0.486-3.151,0.757-4.723c0.188-1.092,0.849-1.577,1.957-1.569c2.976,0.02,5.953,0.012,8.929,0.004
		c1.223-0.003,1.859,0.549,2.021,1.798c0.284,2.199,0.62,4.394,1.036,6.572c0.086,0.45,0.539,0.924,0.948,1.202
		c2.166,1.47,4.074,1.169,5.887-0.768c0.896-0.957,2.113-1.611,3.17-2.422c0.833-0.639,1.661-0.652,2.396,0.082
		c2.196,2.195,4.369,4.414,6.534,6.64c1.012,1.04,0.936,2.047-0.015,3.161c-1.238,1.45-2.39,2.979-3.487,4.539
		c-0.262,0.372-0.203,1.002-0.203,1.513c0,0.24,0.275,0.47,0.315,0.723c0.418,2.611,2.215,3.251,4.531,3.345
		c1.367,0.056,2.726,0.354,4.084,0.571c1.059,0.169,1.662,0.764,1.654,1.894C66.624,47.017,66.632,48.528,66.633,50.038z
		 M46.647,50.04c0.035-7.386-5.817-13.352-13.147-13.406c-7.463-0.054-13.482,5.821-13.509,13.187
		c-0.027,7.477,5.825,13.444,13.223,13.484C40.671,63.345,46.612,57.479,46.647,50.04z"/>
	<path style="fill:#1C1C1C;" d="M99.954,76.685c0,0.666,0,1.332,0,1.998c-0.001,1.979-0.017,2.052-1.971,2.406
		c-1.524,0.276-3.07,0.442-4.61,0.622c-1.583,0.185-2.901,2.434-2.306,3.904c0.715,1.766,1.367,3.558,2.064,5.332
		c0.281,0.715,0.061,1.15-0.599,1.518c-1.743,0.97-3.472,1.968-5.177,3.003c-0.612,0.371-1.045,0.305-1.477-0.229
		c-1.199-1.482-2.426-2.941-3.606-4.438c-0.983-1.247-3.578-1.275-4.556-0.043c-1.184,1.493-2.416,2.949-3.608,4.436
		c-0.473,0.59-0.919,0.643-1.581,0.234c-1.66-1.024-3.351-2-5.064-2.932c-0.723-0.393-0.944-0.844-0.64-1.608
		c0.706-1.77,1.369-3.558,2.083-5.324c0.563-1.393-0.759-3.643-2.257-3.847c-1.798-0.244-3.588-0.543-5.382-0.81
		c-0.929-0.138-1.362-0.569-1.312-1.602c0.087-1.816,0.074-3.641,0.003-5.458c-0.035-0.904,0.344-1.325,1.154-1.457
		c1.791-0.292,3.581-0.606,5.381-0.829c1.682-0.208,3-2.383,2.365-3.963c-0.693-1.726-1.327-3.476-2.018-5.202
		c-0.303-0.756-0.136-1.212,0.604-1.611c1.716-0.925,3.405-1.905,5.073-2.916c0.657-0.399,1.126-0.341,1.599,0.241
		c1.23,1.514,2.482,3.011,3.714,4.524c0.825,1.013,3.485,1.007,4.304-0.006c1.199-1.483,2.425-2.943,3.618-4.43
		c0.487-0.607,0.941-0.784,1.683-0.326c1.66,1.023,3.363,1.977,5.076,2.91c0.736,0.401,0.877,0.886,0.579,1.636
		c-0.688,1.728-1.313,3.481-2.005,5.207c-0.626,1.562,0.711,3.736,2.398,3.937c1.669,0.199,3.326,0.507,4.991,0.741
		c1.098,0.155,1.655,0.647,1.499,1.856C99.868,74.987,99.954,75.842,99.954,76.685z M86.63,76.603
		c-0.002-3.652-3.049-6.668-6.716-6.647c-3.57,0.02-6.603,3.063-6.611,6.632c-0.008,3.68,2.995,6.703,6.661,6.706
		C83.644,83.297,86.633,80.298,86.63,76.603z"/>
	<path style="fill:#1C1C1C;" d="M69.246,15.195c-0.128-0.299-0.294-0.661-0.438-1.031c-0.658-1.693-1.296-3.394-1.971-5.081
		c-0.302-0.754-0.13-1.214,0.608-1.612c1.716-0.926,3.405-1.905,5.073-2.916c0.657-0.398,1.126-0.341,1.599,0.242
		c1.202,1.48,2.435,2.935,3.629,4.422c0.943,1.175,3.555,1.171,4.482-0.001c1.156-1.46,2.362-2.879,3.525-4.334
		c0.487-0.609,0.942-0.783,1.683-0.327c1.661,1.021,3.363,1.977,5.076,2.909c0.737,0.401,0.878,0.893,0.58,1.638
		c-0.707,1.769-1.366,3.557-2.076,5.324c-0.522,1.3,0.809,3.601,2.2,3.791c1.754,0.239,3.503,0.521,5.256,0.767
		c1.093,0.153,1.593,0.644,1.51,1.856c-0.118,1.723-0.083,3.463-0.009,5.191c0.041,0.953-0.346,1.403-1.218,1.543
		c-1.704,0.274-3.403,0.596-5.116,0.793c-1.883,0.216-3.209,2.322-2.51,4.056c0.696,1.725,1.325,3.477,2.002,5.21
		c0.28,0.716,0.055,1.151-0.603,1.517c-1.742,0.971-3.471,1.968-5.176,3.003c-0.613,0.372-1.045,0.301-1.477-0.231
		c-1.147-1.41-2.332-2.79-3.45-4.222c-1.22-1.563-3.668-1.588-4.874-0.046c-1.119,1.431-2.307,2.809-3.445,4.226
		c-0.474,0.59-0.92,0.64-1.581,0.233c-1.699-1.045-3.473-1.969-5.15-3.046c-0.344-0.221-0.659-0.983-0.539-1.35
		c0.605-1.85,1.342-3.659,2.065-5.469c0.566-1.416-0.744-3.642-2.257-3.847c-1.798-0.243-3.588-0.543-5.382-0.81
		c-0.932-0.139-1.358-0.576-1.307-1.606c0.087-1.771,0.09-3.554-0.001-5.324c-0.053-1.028,0.369-1.473,1.292-1.619
		c1.705-0.268,3.407-0.562,5.118-0.791C67.384,18.116,69.239,16.257,69.246,15.195z M86.627,23.355
		c0.024-3.593-2.955-6.66-6.52-6.711c-3.654-0.052-6.778,2.968-6.8,6.575c-0.023,3.705,2.936,6.738,6.598,6.764
		C83.602,30.008,86.602,27.05,86.627,23.355z"/>
</g>
</svg>
