<?xml version="1.0" encoding="utf-8"?>
<!-- Generator: Adobe Illustrator 17.0.0, SVG Export Plug-In . SVG Version: 6.00 Build 0)  -->
<!DOCTYPE svg PUBLIC "-//W3C//DTD SVG 1.1//EN" "http://www.w3.org/Graphics/SVG/1.1/DTD/svg11.dtd">
<svg version="1.1" id="Layer_1" xmlns="http://www.w3.org/2000/svg" xmlns:xlink="http://www.w3.org/1999/xlink" x="0px" y="0px"
	 width="100px" height="100px" viewBox="0 0 100 100" style="enable-background:new 0 0 100 100;" xml:space="preserve">
<path style="fill:#1C1C1C;" d="M11.005,75.915c-2.426,0-4.744,0.071-7.056-0.018c-2.859-0.111-4.365-1.849-3.85-4.384
	c0.37-1.821,1.697-2.687,3.573-3.074c0-0.508,0-1.036,0-1.564c-0.005-6.716,0.055-13.433-0.038-20.148
	c-0.055-4.023,1.057-7.373,4.159-10.153c3.231-2.896,6.194-6.093,9.248-9.184c2.237-2.263,4.899-3.393,8.097-3.329
	c2.658,0.054,5.318,0.011,8.176,0.011c0-2.498,0-4.898,0-7.299c0-1.235-0.034-2.471,0.01-3.704c0.082-2.269,1.601-3.786,3.879-3.808
	C41.007,9.224,44.81,9.25,48.612,9.25c15.556,0,31.112-0.001,46.668,0c3.425,0,4.718,1.302,4.718,4.753
	c0.001,19.062,0.001,38.125,0,57.187c0,3.506-1.176,4.694-4.695,4.743c-0.835,0.012-1.67,0.002-2.685,0.002
	c-0.16,5.13-2.287,9.213-6.447,12.189c-2.763,1.977-5.877,2.725-9.222,2.591c-6.12-0.244-13.453-4.955-14.106-14.716
	c-7.33,0-14.665,0-21.997,0c-0.624,10.085-8.666,14.987-15.427,14.752C18.636,90.514,11.482,85.29,11.005,75.915z M11.186,46.199
	c7.399,0,14.717,0,22.023,0c0-4.958,0-9.81,0-14.738c-2.764,0-5.425,0.055-8.081-0.024c-1.247-0.037-2.137,0.398-2.99,1.266
	c-3.213,3.271-6.448,6.52-9.738,9.714C11.306,43.478,10.799,44.615,11.186,46.199z M85.186,75.902
	c0.002-3.984-3.339-7.352-7.324-7.384c-4.051-0.032-7.496,3.352-7.5,7.368c-0.005,4.071,3.363,7.464,7.409,7.465
	C81.839,83.352,85.184,79.992,85.186,75.902z M18.487,75.938c0.015,4.062,3.407,7.431,7.462,7.412
	c4.062-0.019,7.38-3.399,7.363-7.501c-0.016-3.97-3.386-7.319-7.377-7.332C21.896,68.505,18.471,71.917,18.487,75.938z"/>
</svg>
