<?xml version="1.0" encoding="utf-8"?>
<!-- Generator: Adobe Illustrator 17.0.0, SVG Export Plug-In . SVG Version: 6.00 Build 0)  -->
<!DOCTYPE svg PUBLIC "-//W3C//DTD SVG 1.1//EN" "http://www.w3.org/Graphics/SVG/1.1/DTD/svg11.dtd">
<svg version="1.1" id="Layer_1" xmlns="http://www.w3.org/2000/svg" xmlns:xlink="http://www.w3.org/1999/xlink" x="0px" y="0px"
	 width="100px" height="100px" viewBox="0 0 100 100" style="enable-background:new 0 0 100 100;" xml:space="preserve">
<path style="fill:#1C1C1C;" d="M50.034,0C62.166,0,74.298-0.001,86.43,0.001c3.845,0.001,5.303,1.477,5.304,5.37
	c0.002,15.416-0.163,30.834,0.059,46.246c0.146,10.129-3.34,18.723-9.855,26.203c-8.32,9.553-18.645,16.429-30.017,21.79
	c-1.053,0.497-2.742,0.529-3.782,0.034c-12.123-5.767-23.146-13.087-31.614-23.705c-5.426-6.804-8.386-14.536-8.322-23.403
	C8.318,36.844,8.235,21.149,8.236,5.455c0-3.979,1.461-5.454,5.402-5.454C25.77-0.001,37.902,0,50.034,0z M50.025,86.443
	c0.295-0.02,0.419,0.006,0.504-0.04c8.395-4.506,16.126-9.9,22.372-17.181c3.945-4.598,6.4-9.831,6.375-16.073
	c-0.052-12.971-0.034-25.942,0.012-38.913c0.005-1.347-0.315-1.822-1.745-1.811c-8.684,0.063-17.369,0.03-26.053,0.036
	c-0.478,0-0.955,0.073-1.466,0.114C50.025,37.275,50.025,61.819,50.025,86.443z"/>
</svg>
